<?xml version="1.0" encoding="UTF-8"?>
<svg width="17px" height="20px" viewBox="0 0 17 20" version="1.1" xmlns="http://www.w3.org/2000/svg" xmlns:xlink="http://www.w3.org/1999/xlink">
    <!-- Generator: Sketch 41.2 (35397) - http://www.bohemiancoding.com/sketch -->
    <title>Artboard</title>
    <desc>Created with Sketch.</desc>
    <defs></defs>
    <g id="Page-1" stroke="none" stroke-width="1" fill="none" fill-rule="evenodd">
        <g id="Artboard" fill="#fff">
            <g id="android-logo">
                <g id="Group">
                    <path d="M1.24667984,6.51047431 L1.1955336,6.51047431 C0.539881423,6.51047431 0.00529644269,7.04675889 0.00529644269,7.70071146 L0.00529644269,12.8828063 C0.00529644269,13.5393281 0.539881423,14.0738735 1.1955336,14.0738735 L1.24754941,14.0738735 C1.90320158,14.0738735 2.43778656,13.5375889 2.43778656,12.8828063 L2.43778656,7.70067194 C2.436917,7.04675889 1.90150198,6.51047431 1.24667984,6.51047431 Z" id="Shape"></path>
                    <path d="M3.00731225,14.883004 C3.00731225,15.4849407 3.49924901,15.9751779 4.10118577,15.9751779 L5.27011858,15.9751779 L5.27011858,18.7742688 C5.27011858,19.4316206 5.80640316,19.9662055 6.46035573,19.9662055 L6.51150198,19.9662055 C7.16802372,19.9662055 7.70343874,19.4307905 7.70343874,18.7742688 L7.70343874,15.9751779 L9.33703557,15.9751779 L9.33703557,18.7742688 C9.33703557,19.4316206 9.87501976,19.9662055 10.5289723,19.9662055 L10.5792885,19.9662055 C11.2357708,19.9662055 11.7703557,19.4307905 11.7703557,18.7742688 L11.7703557,15.9751779 L12.9401186,15.9751779 C13.5411858,15.9751779 14.0331621,15.4849407 14.0331621,14.883004 L14.0331621,6.70059289 L3.00731225,6.70059289 L3.00731225,14.883004 Z" id="Shape"></path>
                    <path d="M11.2664427,1.7384585 L12.1949407,0.305256917 C12.2546245,0.21486166 12.2281818,0.0912648221 12.1369565,0.0324110672 C12.0466008,-0.0272727273 11.9229644,-0.00252964427 11.8641107,0.0903952569 L10.9015415,1.573083 C10.1794071,1.2772332 9.37284585,1.11098814 8.52106719,1.11098814 C7.6684585,1.11098814 6.86359684,1.2772332 6.13976285,1.573083 L5.17889328,0.0903952569 C5.12007905,-0.00252964427 4.99557312,-0.0272727273 4.90434783,0.0324110672 C4.81312253,0.0912252964 4.78667984,0.21486166 4.84636364,0.305256917 L5.7756917,1.7384585 C4.10031621,2.55952569 2.97063241,4.10699605 2.97063241,5.88209486 C2.97063241,5.9912253 2.97747036,6.09865613 2.98683794,6.20521739 L14.0561265,6.20521739 C14.0654941,6.09865613 14.0714625,5.9912253 14.0714625,5.88209486 C14.071502,4.10699605 12.9409486,2.55952569 11.2664427,1.7384585 Z M5.95474308,4.30478261 C5.66059289,4.30478261 5.42185771,4.06774704 5.42185771,3.7727668 C5.42185771,3.47778656 5.66059289,3.24158103 5.95474308,3.24158103 C6.25059289,3.24158103 6.48762846,3.47774704 6.48762846,3.7727668 C6.48762846,4.06778656 6.24889328,4.30478261 5.95474308,4.30478261 Z M11.0865613,4.30478261 C10.7924111,4.30478261 10.5536759,4.06774704 10.5536759,3.7727668 C10.5536759,3.47778656 10.7924111,3.24158103 11.0865613,3.24158103 C11.3815415,3.24158103 11.6185771,3.47774704 11.6185771,3.7727668 C11.6185771,4.06774704 11.3815415,4.30478261 11.0865613,4.30478261 Z" id="Shape"></path>
                    <path d="M15.8449012,6.51047431 L15.7954545,6.51047431 C15.1398024,6.51047431 14.6035178,7.04675889 14.6035178,7.70071146 L14.6035178,12.8828063 C14.6035178,13.5393281 15.1406719,14.0738735 15.7954545,14.0738735 L15.8457708,14.0738735 C16.502253,14.0738735 17.0360079,13.5375889 17.0360079,12.8828063 L17.0360079,7.70067194 C17.0360079,7.04675889 16.5005534,6.51047431 15.8449012,6.51047431 Z" id="Shape"></path>
                </g>
            </g>
        </g>
    </g>
</svg>